<?xml version="1.0" encoding="UTF-8" standalone="no"?>
<!-- Created with Inkscape (http://www.inkscape.org/) -->

<svg
   xmlns:dc="http://purl.org/dc/elements/1.1/"
   xmlns:cc="http://creativecommons.org/ns#"
   xmlns:rdf="http://www.w3.org/1999/02/22-rdf-syntax-ns#"
   xmlns:svg="http://www.w3.org/2000/svg"
   xmlns="http://www.w3.org/2000/svg"
   xmlns:sodipodi="http://sodipodi.sourceforge.net/DTD/sodipodi-0.dtd"
   xmlns:inkscape="http://www.inkscape.org/namespaces/inkscape"
   width="62.856239mm"
   height="62.76252mm"
   viewBox="0 0 62.856239 62.76252"
   version="1.1"
   id="svg8"
   inkscape:version="0.92.4 (5da689c313, 2019-01-14)"
   sodipodi:docname="certGenIcon.svg">
  <defs
     id="defs2" />
  <sodipodi:namedview
     id="base"
     pagecolor="#ffffff"
     bordercolor="#666666"
     borderopacity="1.0"
     inkscape:pageopacity="0.0"
     inkscape:pageshadow="2"
     inkscape:zoom="1.979899"
     inkscape:cx="136.93548"
     inkscape:cy="108.88899"
     inkscape:document-units="mm"
     inkscape:current-layer="layer1"
     showgrid="false"
     showborder="false"
     inkscape:window-width="1846"
     inkscape:window-height="1058"
     inkscape:window-x="66"
     inkscape:window-y="-8"
     inkscape:window-maximized="1" />
  <metadata
     id="metadata5">
    <rdf:RDF>
      <cc:Work
         rdf:about="">
        <dc:format>image/svg+xml</dc:format>
        <dc:type
           rdf:resource="http://purl.org/dc/dcmitype/StillImage" />
        <dc:title />
      </cc:Work>
    </rdf:RDF>
  </metadata>
  <g
     inkscape:label="Layer 1"
     inkscape:groupmode="layer"
     id="layer1"
     transform="translate(-59.344701,19.815696)">
    <g
       id="g916">
      <g
         transform="translate(-13.04092)"
         id="g907">
        <path
           style="opacity:1;fill:#808080;fill-opacity:1;stroke:none;stroke-width:1.96630943;stroke-linecap:round;stroke-linejoin:miter;stroke-miterlimit:4;stroke-dasharray:none;stroke-opacity:0.95675677;paint-order:markers stroke fill"
           d="M 104.04472,-14.182658 A 25.685878,25.84524 0 0 0 78.358381,11.662518 25.685878,25.84524 0 0 0 104.04472,37.508216 25.685878,25.84524 0 0 0 129.73053,11.662518 25.685878,25.84524 0 0 0 104.04472,-14.182658 Z m 0,6.4615558 A 19.26441,19.38393 0 0 1 123.30882,11.662518 19.26441,19.38393 0 0 1 104.04472,31.046661 19.26441,19.38393 0 0 1 84.780095,11.662518 19.26441,19.38393 0 0 1 104.04472,-7.7211022 Z"
           id="path12"
           inkscape:connector-curvature="0" />
        <path
           style="fill:#808080;fill-opacity:1;stroke:none;stroke-width:0.26748589px;stroke-linecap:butt;stroke-linejoin:miter;stroke-opacity:1"
           d="m 124.55202,21.481671 -7.9998,10.732576 10.6664,10.732576 -1.3333,-10.732576 h 9.3331 z m 1.30986,2.499727 6.84879,6.891277 h -8.15865 l 1.16559,9.414063 -7.71751,-7.764874 z"
           id="path832"
           inkscape:connector-curvature="0" />
        <path
           id="path830"
           d="m 124.57546,1.6494601 -7.9998,-10.7325729 10.6664,-10.7325832 -1.3333,10.7325832 h 9.3331 z m 1.30986,-2.49973022 6.84879,-6.89127738 h -8.15865 l 1.1656,-9.4140585 -7.71752,7.7648756 z"
           style="fill:#808080;fill-opacity:1;stroke:none;stroke-width:0.26748592px;stroke-linecap:butt;stroke-linejoin:miter;stroke-opacity:1"
           inkscape:connector-curvature="0" />
        <path
           id="path833"
           d="m 83.052018,21.481669 7.9998,10.732583 -10.666397,10.732573 1.333293,-10.732573 h -9.333093 z m -1.309861,2.49973 -6.848786,6.891278 h 8.158647 l -1.165597,9.414058 7.717511,-7.764865 z"
           style="fill:#808080;fill-opacity:1;stroke:none;stroke-width:0.26748592px;stroke-linecap:butt;stroke-linejoin:miter;stroke-opacity:1"
           inkscape:connector-curvature="0" />
        <path
           inkscape:connector-curvature="0"
           style="fill:#808080;fill-opacity:1;stroke:none;stroke-width:0.26748592px;stroke-linecap:butt;stroke-linejoin:miter;stroke-opacity:1"
           d="M 83.052018,1.6657162 91.051818,-9.0668669 80.385421,-19.79944 81.718714,-9.0668669 H 72.385621 Z M 81.742157,-0.83401407 74.893371,-7.7252915 h 8.158647 l -1.165597,-9.4140585 7.717511,7.7648655 z"
           id="path835" />
      </g>
      <path
         inkscape:connector-curvature="0"
         id="path900"
         d="m 89.713152,17.874458 c -1.6958,-0.251873 -3.591674,-1.577769 -4.473813,-3.128812 -0.627538,-1.103384 -0.841411,-2.06765 -0.782717,-3.528965 0.04611,-1.148064 0.104501,-1.3974437 0.543747,-2.3223687 1.350495,-2.843758 4.382683,-4.280795 7.383413,-3.499202 2.8634,0.745819 4.95602,3.707138 4.69209,6.6398987 -0.33808,3.756839 -3.65779,6.389732 -7.36272,5.839449 z"
         style="opacity:1;fill:#808080;fill-opacity:1;stroke:none;stroke-width:0.13363476;stroke-opacity:1" />
    </g>
  </g>
</svg>
