<?xml version="1.0" encoding="UTF-8" standalone="no"?>
<!-- Created with Inkscape (http://www.inkscape.org/) -->

<svg
   xmlns:dc="http://purl.org/dc/elements/1.1/"
   xmlns:cc="http://creativecommons.org/ns#"
   xmlns:rdf="http://www.w3.org/1999/02/22-rdf-syntax-ns#"
   xmlns:svg="http://www.w3.org/2000/svg"
   xmlns="http://www.w3.org/2000/svg"
   xmlns:sodipodi="http://sodipodi.sourceforge.net/DTD/sodipodi-0.dtd"
   xmlns:inkscape="http://www.inkscape.org/namespaces/inkscape"
   width="63.501377mm"
   height="63.5462mm"
   viewBox="0 0 63.501377 63.5462"
   version="1.1"
   id="svg8"
   inkscape:version="0.92.4 (unknown)"
   sodipodi:docname="faqIcon.svg">
  <defs
     id="defs2" />
  <sodipodi:namedview
     id="base"
     pagecolor="#ffffff"
     bordercolor="#666666"
     borderopacity="1.0"
     inkscape:pageopacity="0.0"
     inkscape:pageshadow="2"
     inkscape:zoom="0.9899495"
     inkscape:cx="-120.05845"
     inkscape:cy="141.84872"
     inkscape:document-units="mm"
     inkscape:current-layer="layer1"
     showgrid="false"
     showborder="false"
     inkscape:window-width="1920"
     inkscape:window-height="947"
     inkscape:window-x="0"
     inkscape:window-y="27"
     inkscape:window-maximized="1" />
  <metadata
     id="metadata5">
    <rdf:RDF>
      <cc:Work
         rdf:about="">
        <dc:format>image/svg+xml</dc:format>
        <dc:type
           rdf:resource="http://purl.org/dc/dcmitype/StillImage" />
        <dc:title />
      </cc:Work>
    </rdf:RDF>
  </metadata>
  <g
     inkscape:label="Layer 1"
     inkscape:groupmode="layer"
     id="layer1"
     transform="translate(-166.99595,-75.468104)">
    <g
       id="g832">
      <path
         inkscape:connector-curvature="0"
         id="path1885"
         d="m 167.16004,91.567321 c 0,0 1.98028,-14.533034 29.70401,-15.854219 27.72374,-1.321184 33.66454,13.476087 33.46652,15.854219 -0.19803,2.378133 -2.1783,10.239179 -11.68358,14.466969 -9.50528,4.2278 -14.15891,7.33258 -14.05989,10.96584 0.099,3.63326 -23.16913,5.3508 -15.24806,-7.26652 0,0 5.74278,-6.34168 13.76286,-9.24829 8.02008,-2.906606 10.3964,-10.569479 3.56448,-13.674263 -6.83192,-3.104784 -16.83227,-0.792711 -18.5155,1.255125 -1.68323,2.047835 -6.13882,9.908887 -13.26779,8.653761 -7.12896,-1.255125 -7.327,-3.302963 -7.72305,-5.152622 z"
         style="fill:#808080;fill-opacity:1;stroke:#808080;stroke-width:0.32349956px;stroke-linecap:butt;stroke-linejoin:miter;stroke-opacity:1" />
      <path
         inkscape:connector-curvature="0"
         id="path828"
         d="m 194.66364,138.75538 c -1.41046,-0.266 -3.10146,-0.85815 -4.03759,-1.41388 -1.23347,-0.73225 -2.51618,-2.02388 -3.01388,-3.03485 -0.39886,-0.8102 -0.43506,-0.98988 -0.43506,-2.15891 0,-1.17334 0.0353,-1.34689 0.44237,-2.17374 1.02927,-2.09073 3.53782,-3.74955 6.6379,-4.38939 1.54154,-0.31817 4.33866,-0.33879 5.77284,-0.0425 3.32406,0.6866 5.85711,2.3651 6.89865,4.57132 0.37234,0.7887 0.42434,1.03759 0.42562,2.03717 0.001,1.02655 -0.0435,1.23057 -0.45506,2.07135 -0.99146,2.02541 -3.16413,3.53829 -6.25967,4.35873 -1.39291,0.36918 -4.46834,0.45911 -5.97612,0.17475 z"
         style="opacity:1;fill:#808080;fill-opacity:1;stroke:#808080;stroke-width:0.17817968;stroke-linecap:round;stroke-linejoin:miter;stroke-miterlimit:4;stroke-dasharray:none;stroke-opacity:1;paint-order:markers stroke fill" />
    </g>
  </g>
</svg>
